<svg height="60" viewBox="0 0 60 60" width="60" xmlns="http://www.w3.org/2000/svg"><g fill="#fff" fill-rule="evenodd"><path d="m28.6956522 28.6956522h-9.1304348v-6.5217392h-19.5652174v-9.0036231h19.5652174v-4.03985512h-19.5652174v-9.13043478h28.6956522z"/><path d="m28.6956522 28.6956522h-9.1304348v-6.5217392h-19.09106177v-9.0036231h19.09106177v-4.03985512h-19.5652174v-9.13043478h28.6956522z" transform="matrix(-1 0 0 -1 28.695652 60)"/><g transform="translate(31.304348 31.304348)"><path d="m0 28.6956522v-28.6956522h10.4347826v28.6956522z"/><path d="m9.13043478 0h19.29619562l-11.1215731 14.3478261 11.3905949 14.3478261h-19.56521742z"/></g><g transform="matrix(0 1 -1 0 60 0)"><path d="m0 28.6956522v-28.6956522h10.4347826v28.6956522z"/><path d="m9.13043478 0h19.29619562l-11.1215731 14.3478261 11.3905949 14.3478261h-19.56521742z"/></g></g></svg>